# xmcd
#
# Track frame offsets:
#	150
#	12437
#	38935
#	63362
#	77287
#	83902
#	107182
#	134815
#	146912
#	167925
#
# Disc length: 2424 seconds
#
# Revision: 1
# Processed by: cddbd v1.5.1PL0 Copyright (c) Steve Scherf et al.
# Submitted via: CDex 1.50Beta5
#
DISCID=8b09760a
DTITLE=栗山和樹 - 「北条時宗」 Original Soundtrack
DYEAR=1900
DGENRE=Soundtrack
TTITLE0=ナムジリーン・ノロヴバンザド/NHK交響楽団/蒼風〜オープニング・テーマ〜
TTITLE1=栗山和樹/鎌倉I
TTITLE2=栗山和樹/海
TTITLE3=栗山和樹/鎌倉II
TTITLE4=山下洋輔/蒼風〜ピアノ・バージョン for TV〜
TTITLE5=栗山和樹/闇
TTITLE6=栗山和樹/悲
TTITLE7=ダムディン・ガントゥルガ/モンゴル〜ホーミー〜
TTITLE8=ナムジリーン・ノロヴバンザド/モンゴル〜ゴーリンゴー〜
TTITLE9=山下洋輔/蒼風〜ピアノ・バージョン for CD
EXTD=
EXTT0=
EXTT1=
EXTT2=
EXTT3=
EXTT4=
EXTT5=
EXTT6=
EXTT7=
EXTT8=
EXTT9=
PLAYORDER=
